<svg xmlns="http://www.w3.org/2000/svg" width="18" height="15" viewBox="0 0 18 15" fill="none">
    <path d="M10.2168 1.23404C9.24177 0.502755 7.90109 0.502757 6.92604 1.23404L1.28571 5.46429C0.873851 5.77318 1.09231 6.42857 1.60714 6.42857C1.90301 6.42857 2.14286 6.66842 2.14286 6.96429V12.8571C2.14286 14.0406 3.10225 15 4.28571 15C5.46918 15 6.42857 14.0406 6.42857 12.8571C6.42857 11.6737 7.38796 10.7143 8.57143 10.7143C9.7549 10.7143 10.7143 11.6737 10.7143 12.8571C10.7143 14.0406 11.6737 15 12.8571 15C14.0406 15 15 14.0406 15 12.8571V6.89183C15 6.60307 15.2387 6.37145 15.5273 6.38011C16.0269 6.39509 16.2497 5.7587 15.8498 5.45881L10.2168 1.23404Z" fill="white"/>
</svg>