<svg width="3042" height="546" viewBox="0 0 3042 546" fill="none" xmlns="http://www.w3.org/2000/svg">
<path d="M2212.18 519C2195.98 519 2183.58 514.9 2174.98 506.7C2166.38 498.5 2162.08 486.8 2162.08 471.6C2162.08 456.6 2166.38 445 2174.98 436.8C2183.58 428.6 2195.98 424.5 2212.18 424.5H2327.38V417.3C2327.38 405.1 2321.38 399 2309.38 399H2182.18V364.5H2320.78C2338.98 364.5 2351.88 368.7 2359.48 377.1C2367.08 385.3 2370.88 396.9 2370.88 411.9V519H2212.18ZM2219.98 484.5H2327.38V459H2219.98C2216.18 459 2213.18 460.2 2210.98 462.6C2208.98 464.8 2207.98 467.8 2207.98 471.6C2207.98 475.4 2208.98 478.5 2210.98 480.9C2213.18 483.3 2216.18 484.5 2219.98 484.5ZM2594.19 519H2550.69V304.5H2594.19V519ZM2586.69 519H2483.19C2456.39 519 2435.49 512.4 2420.49 499.2C2405.49 486 2397.99 466.9 2397.99 441.9C2397.99 416.7 2405.49 397.5 2420.49 384.3C2435.49 371.1 2456.39 364.5 2483.19 364.5H2583.69V399H2483.19C2470.19 399 2460.19 402.6 2453.19 409.8C2446.39 416.8 2442.99 427.5 2442.99 441.9C2442.99 456.1 2446.39 466.8 2453.19 474C2460.19 481 2470.19 484.5 2483.19 484.5H2586.69V519ZM2668.33 519C2652.13 519 2639.73 514.9 2631.13 506.7C2622.53 498.5 2618.23 486.8 2618.23 471.6C2618.23 456.6 2622.53 445 2631.13 436.8C2639.73 428.6 2652.13 424.5 2668.33 424.5H2783.53V417.3C2783.53 405.1 2777.53 399 2765.53 399H2638.33V364.5H2776.93C2795.13 364.5 2808.03 368.7 2815.63 377.1C2823.23 385.3 2827.03 396.9 2827.03 411.9V519H2668.33ZM2676.13 484.5H2783.53V459H2676.13C2672.33 459 2669.33 460.2 2667.13 462.6C2665.13 464.8 2664.13 467.8 2664.13 471.6C2664.13 475.4 2665.13 478.5 2667.13 480.9C2669.33 483.3 2672.33 484.5 2676.13 484.5ZM2860.14 519V364.5H2978.34C2995.74 364.5 3008.54 368.9 3016.74 377.7C3024.94 386.3 3029.04 397.7 3029.04 411.9V444H2984.94V417.3C2984.94 405.3 2978.94 399.3 2966.94 399.3H2904.24V519H2860.14Z" fill="#FF4655"/>
<path d="M75.9863 519V155L393.486 248.5L710.486 155V519H537.486V448H579.986V277L458.486 311.5V519H327.986V311.5L206.486 277V448H248.986V519H75.9863ZM810.361 519V155L1127.86 248.5L1444.86 155V519H1271.86V448H1314.36V277L1192.86 311.5V519H1062.36V311.5L940.861 277V448H983.361V519H810.361Z" fill="white"/>
<path d="M1494.74 441V363.5L1569.24 351V169H2088.74V341L1937.74 366.5L2109.24 519H1928.74L1786.24 392L1699.74 406.5V519H1569.24V428.5L1494.74 441ZM1699.74 328L1958.24 284.5V240H1699.74V328Z" fill="#FF4655"/>
</svg>
