<svg xmlns="http://www.w3.org/2000/svg" width="14" height="15" viewBox="0 0 14 15" fill="none">
    <path d="M7 15C6.02778 15 5.11713 14.8304 4.26806 14.4911C3.41898 14.1518 2.68009 13.6935 2.05139 13.1161C1.42269 12.5387 0.923611 11.8601 0.554167 11.0804C0.293762 10.5307 0.125131 9.95303 0.0482739 9.34722C-0.00578935 8.92108 0.348223 8.57143 0.777778 8.57143C1.20733 8.57143 1.54807 8.92179 1.61336 9.34636C1.7766 10.4079 2.28557 11.3311 3.14028 12.1161C4.19676 13.0863 5.48333 13.5714 7 13.5714C8.51667 13.5714 9.80324 13.0863 10.8597 12.1161C11.9162 11.1458 12.4444 9.96429 12.4444 8.57143C12.4444 7.17857 11.9162 5.99702 10.8597 5.02679C9.80324 4.05655 8.51667 3.57143 7 3.57143C6.95858 3.57143 6.93875 3.62232 6.96926 3.65034L7.73426 4.35289C7.92612 4.52909 7.92876 4.83088 7.74001 5.01041L7.5077 5.23138C7.22192 5.5032 6.77442 5.50712 6.48393 5.24034L5.56303 4.39462C4.66237 3.56749 4.66237 2.1468 5.56303 1.31967L6.48393 0.473942C6.77442 0.207169 7.22192 0.211087 7.5077 0.482902L7.74001 0.703876C7.92876 0.883406 7.92612 1.1852 7.73426 1.36139L6.96926 2.06394C6.93875 2.09196 6.95858 2.14286 7 2.14286C7.97222 2.14286 8.88287 2.3125 9.73195 2.65179C10.581 2.99107 11.3199 3.4494 11.9486 4.02679C12.5773 4.60417 13.0764 5.28274 13.4458 6.0625C13.8153 6.84226 14 7.67857 14 8.57143C14 9.46429 13.8153 10.3006 13.4458 11.0804C13.0764 11.8601 12.5773 12.5387 11.9486 13.1161C11.3199 13.6935 10.581 14.1518 9.73195 14.4911C8.88287 14.8304 7.97222 15 7 15Z" fill="white"/>
</svg>