<svg width="26" height="26" viewBox="0 0 26 26" fill="none" xmlns="http://www.w3.org/2000/svg">
<path d="M11.4375 1.7C6.73828 1.7 2.9375 5.50078 2.9375 10.2C2.9375 14.8992 6.73828 18.7 11.4375 18.7C13.1152 18.7 14.668 18.2078 15.9844 17.3719L22.125 23.5125L24.25 21.3875L18.1875 15.3406C19.2773 13.9109 19.9375 12.1394 19.9375 10.2C19.9375 5.50078 16.1367 1.7 11.4375 1.7ZM11.4375 3.7C15.0371 3.7 17.9375 6.60039 17.9375 10.2C17.9375 13.7996 15.0371 16.7 11.4375 16.7C7.83789 16.7 4.9375 13.7996 4.9375 10.2C4.9375 6.60039 7.83789 3.7 11.4375 3.7Z" fill="#767677"/>
</svg>
