<svg xmlns="http://www.w3.org/2000/svg" width="20" height="18" viewBox="0 0 20 18" fill="none">
    <path d="M14.7332 16.5C14.0665 16.5 13.4998 16.2813 13.0332 15.8438C12.5665 15.4063 12.3332 14.875 12.3332 14.25C12.3332 14.1625 12.3398 14.0719 12.3532 13.9781C12.3665 13.8844 12.3865 13.8 12.4132 13.725L6.77315 10.65C6.54649 10.8375 6.29315 10.9844 6.01315 11.0906C5.73315 11.1969 5.43982 11.25 5.13315 11.25C4.46649 11.25 3.89982 11.0312 3.43315 10.5938C2.96649 10.1562 2.73315 9.625 2.73315 9C2.73315 8.375 2.96649 7.84375 3.43315 7.40625C3.89982 6.96875 4.46649 6.75 5.13315 6.75C5.43982 6.75 5.73315 6.80313 6.01315 6.90938C6.29315 7.01562 6.54649 7.1625 6.77315 7.35L12.4132 4.275C12.3865 4.2 12.3665 4.11563 12.3532 4.02188C12.3398 3.92813 12.3332 3.8375 12.3332 3.75C12.3332 3.125 12.5665 2.59375 13.0332 2.15625C13.4998 1.71875 14.0665 1.5 14.7332 1.5C15.3998 1.5 15.9665 1.71875 16.4332 2.15625C16.8998 2.59375 17.1332 3.125 17.1332 3.75C17.1332 4.375 16.8998 4.90625 16.4332 5.34375C15.9665 5.78125 15.3998 6 14.7332 6C14.4265 6 14.1332 5.94688 13.8532 5.84063C13.5732 5.73438 13.3198 5.5875 13.0932 5.4L7.45315 8.475C7.47982 8.55 7.49982 8.63438 7.51315 8.72813C7.52649 8.82188 7.53315 8.9125 7.53315 9C7.53315 9.0875 7.52649 9.17813 7.51315 9.27188C7.49982 9.36563 7.47982 9.45 7.45315 9.525L13.0932 12.6C13.3198 12.4125 13.5732 12.2656 13.8532 12.1594C14.1332 12.0531 14.4265 12 14.7332 12C15.3998 12 15.9665 12.2188 16.4332 12.6562C16.8998 13.0938 17.1332 13.625 17.1332 14.25C17.1332 14.875 16.8998 15.4063 16.4332 15.8438C15.9665 16.2813 15.3998 16.5 14.7332 16.5ZM14.7332 4.5C14.9598 4.5 15.1498 4.42813 15.3032 4.28438C15.4565 4.14062 15.5332 3.9625 15.5332 3.75C15.5332 3.5375 15.4565 3.35938 15.3032 3.21563C15.1498 3.07188 14.9598 3 14.7332 3C14.5065 3 14.3165 3.07188 14.1632 3.21563C14.0098 3.35938 13.9332 3.5375 13.9332 3.75C13.9332 3.9625 14.0098 4.14062 14.1632 4.28438C14.3165 4.42813 14.5065 4.5 14.7332 4.5ZM5.13315 9.75C5.35982 9.75 5.54982 9.67813 5.70315 9.53438C5.85649 9.39063 5.93315 9.2125 5.93315 9C5.93315 8.7875 5.85649 8.60938 5.70315 8.46563C5.54982 8.32188 5.35982 8.25 5.13315 8.25C4.90649 8.25 4.71649 8.32188 4.56315 8.46563C4.40982 8.60938 4.33315 8.7875 4.33315 9C4.33315 9.2125 4.40982 9.39063 4.56315 9.53438C4.71649 9.67813 4.90649 9.75 5.13315 9.75ZM14.7332 15C14.9598 15 15.1498 14.9281 15.3032 14.7844C15.4565 14.6406 15.5332 14.4625 15.5332 14.25C15.5332 14.0375 15.4565 13.8594 15.3032 13.7156C15.1498 13.5719 14.9598 13.5 14.7332 13.5C14.5065 13.5 14.3165 13.5719 14.1632 13.7156C14.0098 13.8594 13.9332 14.0375 13.9332 14.25C13.9332 14.4625 14.0098 14.6406 14.1632 14.7844C14.3165 14.9281 14.5065 15 14.7332 15Z" fill="white"/>
</svg>